# xmcd CD database file
#
# Track frame offsets:
#	150
#	8239
#	38031
#	86047
#	90478
#	132614
#	186057
#	189870
#	232429
#	259467
#	273220
#
# Disc length: 4216 seconds
#
# Revision: 0
# Processed by: cddbd v1.5.1PL0 Copyright (c) Steve Scherf et al.
# Submitted via: CDex 1.51
#
DISCID=9610760b
DTITLE=Derviche - Urania
DYEAR=2005
DGENRE=Jazz
TTITLE0=Urania Parte I
TTITLE1=S
TTITLE2=Z
TTITLE3=Urania Parte II
TTITLE4=Espiro
TTITLE5=Totem
TTITLE6=Urania Parte III
TTITLE7=Pies de botella de vino blanco
TTITLE8=Semilla
TTITLE9=Urania Parte IV
TTITLE10=Kiribati
EXTD=YEAR: 2005
EXTT0=
EXTT1=
EXTT2=
EXTT3=
EXTT4=
EXTT5=
EXTT6=
EXTT7=
EXTT8=
EXTT9=
EXTT10=
PLAYORDER=
